<svg xmlns="http://www.w3.org/2000/svg" width="2489" height="537" viewBox="0 0 2489 537">
  <g id="ZenScan-Logo-Text-Black-Logo-Black" transform="translate(0 -32)">
    <text id="ZenScan" transform="translate(1606 455)" font-size="400" font-family="VarelaRound-Regular, Varela Round" letter-spacing="0.05em"><tspan x="-882.8" y="0">ZenScan</tspan></text>
    <g id="ZenLogo" transform="translate(0 32)">
      <path id="Union_2" data-name="Union 2" d="M374.427,533.821a154.833,154.833,0,0,1-46.562-17.737l31.226-54.25a93.309,93.309,0,0,0,46.8,12.579c51.648,0,93.667-42.115,93.667-93.881s-42.019-93.881-93.667-93.881-93.666,42.115-93.666,93.881a158,158,0,0,1-3.171,31.534,156.1,156.1,0,0,1-305.88,0,158.361,158.361,0,0,1,0-63.068A155.895,155.895,0,0,1,234.135,244.979l-31.226,54.25a93.309,93.309,0,0,0-46.8-12.579c-51.648,0-93.667,42.115-93.667,93.881s42.019,93.881,93.667,93.881,93.666-42.115,93.666-93.881A158,158,0,0,1,252.949,349a155.8,155.8,0,0,1,23.49-55.949,156.614,156.614,0,0,1,68.685-56.69,155.093,155.093,0,0,1,29.3-9.117,157.294,157.294,0,0,1,62.924,0,155.073,155.073,0,0,1,55.822,23.544A156.644,156.644,0,0,1,466.654,524.7a155.034,155.034,0,0,1-29.3,9.117,157.268,157.268,0,0,1-62.924,0ZM257.97,226.743a113.512,113.512,0,0,1-40.861-17.234A114.663,114.663,0,0,1,236.519,9a113.489,113.489,0,0,1,21.45-6.674,115.128,115.128,0,0,1,46.06,0,113.511,113.511,0,0,1,40.861,17.234A114.663,114.663,0,0,1,325.48,220.069a113.528,113.528,0,0,1-21.45,6.674,115.128,115.128,0,0,1-46.06,0ZM224.8,114.535A56.2,56.2,0,1,0,281,58.206,56.328,56.328,0,0,0,224.8,114.535Z"/>
    </g>
  </g>
</svg>
